<svg width="120" height="120" viewBox="0 0 120 120" fill="none" xmlns="http://www.w3.org/2000/svg">
<g clip-path="url(#clip0_1_19)">
<path d="M60 0C26.8577 0 0 26.8577 0 60C0 93.1423 26.8577 120 60 120C93.1423 120 120 93.1423 120 60C120 26.8577 93.1423 0 60 0ZM60 111.428C31.6005 111.428 8.57163 88.3995 8.57163 60C8.57163 31.6005 31.6005 8.57163 60 8.57163C88.3995 8.57163 111.428 31.6005 111.428 60C111.428 88.3995 88.3995 111.428 60 111.428Z" fill="white"/>
<path d="M91.8936 31.2L87.6001 40.0186C91.7122 45.6753 94.1304 52.5348 94.1304 59.9483C94.1304 66.1548 92.4378 71.972 89.4755 77.019L90.6545 90C98.4238 82.1972 103.2 71.6093 103.2 59.9623C103.2 48.9251 98.9373 38.873 91.8936 31.2ZM64.3062 94.2865V25.7134C67.8087 26.1642 71.217 27.1703 74.4029 28.6939L78.0001 20.8604C72.3785 18.1801 66.228 16.7927 60.0001 16.8C53.7722 16.7927 47.6217 18.1801 42.0001 20.8604L45.5973 28.6939C48.8248 27.1583 52.2765 26.147 55.8224 25.6981V94.3004C52.4513 93.8818 49.2224 92.9469 46.235 91.6074L45.4564 100.607C50.1129 102.325 55.0371 103.202 60.0001 103.2C65.1266 103.2 70.055 102.279 74.6011 100.578L73.8224 91.5781C70.8045 92.9538 67.5963 93.8678 64.3062 94.2865ZM28.108 31.2C21.0643 38.8688 16.8015 48.9153 16.8015 59.9344C16.8015 71.6037 21.5931 82.2014 29.3931 90L30.5722 77.0539C27.4897 71.8753 25.8649 65.9596 25.8699 59.933C25.8699 52.5251 28.2894 45.6683 32.4001 40.0297L28.108 31.2Z" fill="white"/>
<path d="M82.3687 41.7781L88.7999 28.0311C86.6258 26.0492 84.2538 24.2958 81.7213 22.7986L68.3999 51.2972V71.6511L75.0752 57.3893L78.6724 98.3986C81.5935 96.9688 84.344 95.214 86.8715 93.1674L82.3687 41.7781ZM51.5706 51.7521L38.1836 22.7986C35.681 24.3037 33.3403 26.0627 31.1985 28.0479L37.5864 41.8577L37.5724 42.1004L33.1492 93.166C35.645 95.211 38.3647 96.9664 41.2562 98.3986L44.8143 57.4451L51.5985 72.1144V51.7521H51.5706Z" fill="white"/>
</g>
<defs>
<clipPath id="clip0_1_19">
<rect width="120" height="120" fill="white"/>
</clipPath>
</defs>
</svg>
